HIERARCHY
ROOT root
{
	OFFSET	0	13.1	24.9
	CHANNELS 6  Xposition Yposition Zposition Xrotation Yrotation Zrotation
	JOINT spine_1
	{
		OFFSET	0	9.99999	0
		CHANNELS 3  Xrotation Yrotation Zrotation
		JOINT spine_2
		{
			OFFSET	0	112	-10
			CHANNELS 3  Xrotation Yrotation Zrotation
			JOINT spine_3
			{
				OFFSET	0	206.5	19.3
				CHANNELS 3  Xrotation Yrotation Zrotation
				JOINT spine_4
				{
					OFFSET	0	110.4	14.6
					CHANNELS 3  Xrotation Yrotation Zrotation
					JOINT neck_1
					{
						OFFSET	0	71.8	-50.3
						CHANNELS 3  Xrotation Yrotation Zrotation
						JOINT neck_2
						{
							OFFSET	0	86.2	-25.8
							CHANNELS 3  Xrotation Yrotation Zrotation
							JOINT head_ee
							{
								OFFSET	0	179.8	-8.7
								CHANNELS 3  Xrotation Yrotation Zrotation
								End Site
								{
									OFFSET	1	0	0
								}
							}
						}
					}
					JOINT left_clavicle
					{
						OFFSET	-43.2	22.4	-70.8
						CHANNELS 3  Xrotation Yrotation Zrotation
						JOINT left_shoulder
						{
							OFFSET	-93.9	-5.79999	48.7
							CHANNELS 3  Xrotation Yrotation Zrotation
							JOINT left_elbow
							{
								OFFSET	-291.4	-30.8	15.2
								CHANNELS 3  Xrotation Yrotation Zrotation
								JOINT left_lowarm_twist
								{
									OFFSET	-110.7	-3.89999	13.6
									CHANNELS 3  Xrotation Yrotation Zrotation
									JOINT left_hand
									{
										OFFSET	-110.7	-3.89999	13.6
										CHANNELS 3  Xrotation Yrotation Zrotation
										JOINT left_ee
										{
											OFFSET	-80.8	-5.10001	12.1
											CHANNELS 3  Xrotation Yrotation Zrotation
											End Site
											{
												OFFSET	1	0	0
											}
										}
									}
								}
							}
						}
					}
					JOINT right_clavicle
					{
						OFFSET	43.2	22.4	-70.8
						CHANNELS 3  Xrotation Yrotation Zrotation
						JOINT right_shoulder
						{
							OFFSET	93.9	-5.79999	48.7
							CHANNELS 3  Xrotation Yrotation Zrotation
							JOINT right_elbow
							{
								OFFSET	291.4	-30.8	15.2
								CHANNELS 3  Xrotation Yrotation Zrotation
								JOINT right_lowarm_twist
								{
									OFFSET	110.7	-3.89999	13.6
									CHANNELS 3  Xrotation Yrotation Zrotation
									JOINT right_hand
									{
										OFFSET	110.7	-3.89999	13.6
										CHANNELS 3  Xrotation Yrotation Zrotation
										JOINT right_ee
										{
											OFFSET	80.8	-5.10001	12.1
											CHANNELS 3  Xrotation Yrotation Zrotation
											End Site
											{
												OFFSET	1	0	0
											}
										}
									}
								}
							}
						}
					}
				}
			}
		}
	}
	JOINT left_hip
	{
		OFFSET	-82.8	-127.5	0.300001
		CHANNELS 3  Xrotation Yrotation Zrotation
		JOINT left_knee
		{
			OFFSET	-28.2	-396.7	2.2
			CHANNELS 3  Xrotation Yrotation Zrotation
			JOINT left_ankle
			{
				OFFSET	-11.7	-411.3	35.4
				CHANNELS 3  Xrotation Yrotation Zrotation
				JOINT left_toes
				{
					OFFSET	0	-60	-88.6
					CHANNELS 3  Xrotation Yrotation Zrotation
					JOINT left_foot_ee
					{
						OFFSET	-22.5	-16.5	-42.2
						CHANNELS 3  Xrotation Yrotation Zrotation
						End Site
						{
							OFFSET	1	0	0
						}
					}
				}
			}
		}
	}
	JOINT right_hip
	{
		OFFSET	82.8	-127.5	0.300001
		CHANNELS 3  Xrotation Yrotation Zrotation
		JOINT right_knee
		{
			OFFSET	28.2	-396.7	2.2
			CHANNELS 3  Xrotation Yrotation Zrotation
			JOINT right_ankle
			{
				OFFSET	11.7	-411.3	35.4
				CHANNELS 3  Xrotation Yrotation Zrotation
				JOINT right_toes
				{
					OFFSET	0	-60	-88.6
					CHANNELS 3  Xrotation Yrotation Zrotation
					JOINT right_foot_ee
					{
						OFFSET	22.5	-16.5	-42.2
						CHANNELS 3  Xrotation Yrotation Zrotation
						End Site
						{
							OFFSET	1	0	0
						}
					}
				}
			}
		}
	}
}
MOTION
Frames: 13
Frame Time: 0.02
1661.16 686.871 -1489.75 8.50854 76.6275 -7.55319 -0.437421 0.0899211 0.32055 -0.437367 0.0693415 0.325622 -0.436929 -0.0031837 0.332908 -0.43708 0.0494325 0.329233 -1.14242 16.8507 2.97307 -0.654617 27.9832 5.07949 -0.0 0.0 -0.0 1.73643 23.4009 5.08923 -1.21097 -42.7685 68.3996 2.65996 -52.7953 1.32046 -9.83397 -0.448424 1.17304 1.37726 3.67572 10.6987 -0.0 0.0 -0.0 10.6634 -2.71478 -20.8469 -8.06332 -35.069 -64.3521 1.03492 27.1423 -0.249829 -45.1244 3.51188 -4.40393 9.74126 18.5561 -74.1081 0.0 0.0 0.0 -14.6168 20.1662 -1.62253 7.20825 -0.363188 -1.04534 32.6604 -22.9606 -4.74922 -28.38 0.0 0.0 -0.0 0.0 -0.0 -0.0929779 19.3391 -5.06269 -0.561166 -0.0226995 -0.0831253 41.7528 -21.1632 5.21704 -40.3071 0.0 0.0 0.0 0.0 0.0 
1648.73 683.598 -1494.16 11.5551 78.544 -10.5642 -0.337524 -0.0993537 0.374172 -0.337454 -0.122962 0.367092 -0.338231 -0.199335 0.331876 -0.338356 -0.14442 0.359192 -0.0406794 16.3683 2.0543 0.51859 27.5955 3.82795 -0.0 0.0 -0.0 1.66219 23.4502 4.99016 -1.75597 -43.1191 68.8907 2.5559 -51.6893 1.23819 -11.6472 -0.552807 1.38019 1.36373 4.21908 10.8193 -0.0 0.0 -0.0 10.7666 -2.94051 -21.0397 -7.0149 -36.5739 -63.8774 1.01202 26.6252 -0.239472 -44.5776 3.45061 -4.3697 9.62756 17.8236 -73.462 0.0 0.0 0.0 -15.5829 18.7397 -2.30969 6.38444 -0.315042 -0.928244 33.1635 -24.3682 -4.87114 -28.4651 0.0 0.0 -0.0 0.0 -0.0 0.273688 20.3415 -5.46099 -4.60066 -0.161895 -0.687314 41.815 -20.427 5.2035 -40.1876 0.0 0.0 0.0 0.0 0.0 
1642.6 684.206 -1500.13 14.9654 79.303 -14.1396 -0.520792 -0.211739 0.500507 -0.520686 -0.243159 0.486019 -0.522758 -0.34374 0.420932 -0.522901 -0.272949 0.469936 -0.525484 15.9406 2.4068 -0.0434162 26.6481 4.26604 -0.0 0.0 -0.0 1.56197 23.1108 4.83102 -1.62907 -43.3504 69.0526 2.42489 -50.2154 1.13643 -12.1215 -0.581192 1.43383 1.3924 2.96743 10.5234 -0.0 0.0 -0.0 11.0661 -1.78666 -21.7483 -7.37819 -35.9027 -63.6735 0.956891 25.3613 -0.21531 -43.2457 3.30277 -4.28391 9.8453 19.4923 -74.0455 0.0 0.0 0.0 -14.0023 19.3967 -2.9151 6.50035 -0.321714 -0.94476 32.7123 -24.5449 -4.82957 -29.9427 0.0 0.0 -0.0 0.0 -0.0 -1.09593 20.712 -5.69052 -6.35635 -0.209037 -0.952618 41.8128 -19.131 5.17205 -37.9189 0.0 0.0 0.0 0.0 0.0 
1637.93 685.198 -1503.91 13.8858 81.5668 -13.2194 -0.457192 -0.24821 0.421936 -0.457135 -0.274555 0.405287 -0.459111 -0.356311 0.33568 -0.459144 -0.298826 0.387739 -0.446455 15.4058 2.43365 0.00182154 25.6437 4.2317 -0.0 0.0 -0.0 1.38011 22.1147 4.51014 -1.97599 -43.76 69.1678 2.33941 -49.2018 1.07123 -13.4373 -0.662257 1.5814 1.43179 3.31741 10.926 -0.0 0.0 -0.0 11.319 -2.18648 -22.2407 -5.41418 -36.4235 -62.4069 0.957604 25.3778 -0.215615 -43.9453 3.38018 -4.3294 9.69669 18.5273 -73.289 0.0 0.0 0.0 -11.3458 19.2174 -4.13987 4.17635 -0.194373 -0.61116 31.2022 -25.3957 -4.69884 -30.98 0.0 0.0 -0.0 0.0 -0.0 -2.52861 23.3172 -5.06013 -3.42137 -0.125671 -0.509956 41.104 -18.5194 5.09563 -40.2228 0.0 0.0 0.0 0.0 0.0 
1633.33 687.827 -1504.39 16.5318 81.8152 -15.5818 -0.689715 -0.0337727 0.141994 -0.689705 -0.0427397 0.139557 -0.689807 -0.0726462 0.126592 -0.689825 -0.0517417 0.136476 -1.2233 14.8182 1.59542 -0.830104 25.4144 3.41995 -0.0 0.0 -0.0 1.33209 22.2556 4.45255 -1.42828 -44.2802 70.1333 2.25679 -48.1809 1.00917 -12.9569 -0.632266 1.52774 1.53617 4.16966 11.961 -0.0 0.0 -0.0 11.1976 -2.58325 -21.955 -4.77814 -36.8165 -62.1334 1.05002 27.4805 -0.256755 -41.5455 3.11701 -4.16944 9.91848 21.0969 -71.8608 0.0 0.0 0.0 -12.1492 19.7764 -3.88289 5.24046 -0.250995 -0.764536 31.0307 -26.5981 -4.74008 -30.9857 0.0 0.0 -0.0 0.0 -0.0 -2.64738 20.601 -5.24992 -4.96541 -0.172358 -0.742313 40.8819 -17.7437 5.0597 -38.3253 0.0 0.0 0.0 0.0 0.0 
1624.91 685.806 -1506.76 14.3216 81.9206 -13.3622 -0.395518 0.217762 0.104921 -0.395536 0.210645 0.118565 -0.395096 0.179912 0.161433 -0.395075 0.203149 0.130993 -2.00455 13.9855 2.17716 -1.71438 23.5917 4.08369 -0.0 0.0 -0.0 1.86067 22.638 5.21782 -2.14798 -44.6839 69.8412 1.94409 -43.9169 0.783888 -13.5359 -0.668471 1.59239 1.88163 4.08088 14.2699 -0.0 0.0 -0.0 11.3164 -2.46343 -22.2114 -4.50242 -36.2824 -61.9254 1.0778 28.0974 -0.269705 -41.6993 3.13367 -4.18002 9.95271 21.4205 -71.7717 0.0 0.0 0.0 -8.79341 18.6175 -5.47048 -0.392263 0.0159534 0.0580828 32.9066 -27.4651 -5.00576 -31.1916 0.0 0.0 -0.0 0.0 -0.0 -3.02036 21.4072 -5.51292 -4.27597 -0.152286 -0.63841 39.9526 -17.3477 4.96822 -38.7173 0.0 0.0 0.0 0.0 0.0 
1616.63 681.605 -1512.03 19.2787 82.509 -18.1495 -0.420999 0.152446 -0.0772464 -0.42101 0.157053 -0.0673893 -0.421206 0.167945 -0.0316414 -0.421172 0.16084 -0.0577681 -3.10151 13.7596 3.25965 -2.88716 22.5431 5.36919 -0.0 0.0 -0.0 3.00022 22.0257 6.79959 -3.5504 -44.4019 68.5873 1.58871 -38.1999 0.550167 -14.1613 -0.708309 1.66181 1.77818 2.34664 12.8948 -0.0 0.0 -0.0 11.4261 -2.42373 -22.4426 -4.45068 -34.5504 -62.2046 1.02134 26.8362 -0.243666 -40.8655 3.04368 -4.12213 10.0837 22.2832 -72.1907 0.0 0.0 0.0 -6.9792 16.4071 -7.35886 -7.88217 0.243386 1.18424 38.2024 -24.5402 -5.40399 -33.5968 0.0 0.0 -0.0 0.0 -0.0 -3.11322 19.8123 -5.94046 -5.3826 -0.183896 -0.805298 41.6695 -16.3847 5.10311 -39.98 0.0 0.0 0.0 0.0 0.0 
1614.04 682.214 -1515.32 19.5935 83.1826 -17.2959 -0.469616 0.0774362 -0.534504 -0.469464 0.111291 -0.528494 -0.47044 0.223931 -0.491474 -0.470748 0.143503 -0.520671 -3.85181 12.7964 3.6902 -3.69754 20.5871 5.7888 -0.0 0.0 -0.0 3.61694 21.4431 7.67406 -5.61125 -44.2773 67.7526 1.49532 -36.5264 0.493491 -14.1 -0.704371 1.65503 1.74912 0.630195 12.0195 -0.0 0.0 -0.0 11.4876 -2.17951 -22.5923 -2.87395 -34.2972 -61.2615 1.08639 28.2869 -0.273767 -39.6045 2.9092 -4.03211 9.85727 23.2266 -66.7914 0.0 0.0 0.0 -3.28207 14.3661 -9.19839 -13.3166 0.315384 2.01469 38.2067 -19.6184 -5.17244 -34.2322 0.0 0.0 -0.0 0.0 -0.0 -3.71972 21.6546 -7.55267 -3.03828 -0.113118 -0.452503 40.4905 -15.7207 4.98789 -40.2344 0.0 0.0 0.0 0.0 0.0 
1604.74 683.201 -1520.06 22.946 83.7766 -20.4204 -0.642505 0.0943769 -0.773978 -0.642183 0.143434 -0.766404 -0.643974 0.309394 -0.715701 -0.644637 0.192483 -0.755579 -3.98569 12.0816 3.0209 -3.85423 19.8093 5.01148 -0.0 0.0 -0.0 4.36646 23.4228 8.72815 -7.62906 -43.9902 66.2069 1.28114 -32.3993 0.372212 -14.2569 -0.714464 1.67238 1.98645 -0.670574 13.125 -0.0 0.0 -0.0 11.4985 -1.97418 -22.6331 -3.13813 -32.1366 -61.6835 1.10342 28.6602 -0.281884 -39.4517 2.89304 -4.021 9.95031 23.0724 -68.4277 0.0 0.0 0.0 -0.780422 12.9451 -10.0363 -19.1874 0.304422 2.91499 39.3879 -17.5021 -5.19827 -35.028 0.0 0.0 -0.0 0.0 -0.0 -4.41203 20.7731 -8.2727 -3.3788 -0.124295 -0.503568 41.5126 -14.854 5.06368 -40.1189 0.0 0.0 0.0 0.0 0.0 
1594.67 684.113 -1525.83 29.6492 83.4364 -26.2644 -0.745817 0.145146 -1.0053 -0.745279 0.208819 -0.994029 -0.748694 0.425211 -0.922445 -0.749777 0.274199 -0.978016 -4.94269 11.4632 2.909 -4.85617 18.9108 4.93324 -0.0 0.0 -0.0 4.53332 22.5064 8.98133 -11.422 -43.8899 64.7131 1.06959 -27.9158 0.265852 -15.0072 -0.763393 1.75501 2.09192 -0.722002 13.8308 -0.0 0.0 -0.0 11.649 -1.7785 -22.9653 -1.87457 -31.5961 -61.6824 1.14351 29.529 -0.30138 -38.6195 2.80556 -3.95976 9.89796 23.2066 -67.409 0.0 0.0 0.0 2.64753 10.0858 -12.4544 -24.3271 0.219234 3.6988 38.3158 -16.7867 -5.07416 -36.8337 0.0 0.0 -0.0 0.0 -0.0 -4.95242 20.2659 -9.27536 -2.77979 -0.104432 -0.413784 41.0985 -14.4912 5.02222 -40.0015 0.0 0.0 0.0 0.0 0.0 
1587.86 681.497 -1529.68 26.5368 84.1018 -22.6089 -0.530072 0.182728 -1.29077 -0.529184 0.264486 -1.27653 -0.534767 0.538077 -1.18743 -0.53657 0.343809 -1.25749 -5.70621 10.9052 2.58441 -5.65304 18.2349 4.61345 -0.0 0.0 -0.0 4.4497 23.3995 8.84481 -12.9603 -43.3812 63.7255 1.04609 -27.3926 0.254945 -14.9923 -0.762414 1.75338 2.09139 -0.695166 13.8379 -0.0 0.0 -0.0 11.7241 -1.06418 -23.185 -0.0703054 -30.6153 -61.814 1.18211 30.3513 -0.320643 -37.9063 2.7313 -3.90627 9.84274 23.1339 -66.7498 0.0 0.0 0.0 5.08952 8.25642 -13.0257 -27.5168 0.131138 4.18033 39.0609 -13.9746 -5.05005 -36.8097 0.0 0.0 -0.0 0.0 -0.0 -5.40678 20.0741 -9.83916 -0.876445 -0.0350949 -0.129922 39.8735 -13.3356 4.89841 -40.1699 0.0 0.0 0.0 0.0 0.0 
1587.61 678.13 -1532.08 24.2164 85.2485 -20.1959 -0.391089 0.235464 -1.35903 -0.390119 0.321458 -1.34129 -0.397369 0.604918 -1.23956 -0.399288 0.401578 -1.31953 -6.42996 10.7587 2.96798 -6.39723 17.7852 5.07101 -0.0 0.0 -0.0 4.40986 24.0488 8.77584 -14.142 -42.8675 62.9578 1.02572 -26.935 0.245643 -14.9988 -0.762839 1.75409 1.93517 -0.416278 12.8748 -0.0 0.0 -0.0 11.7833 -0.541517 -23.3536 2.43071 -29.7881 -62.0134 1.25422 31.8516 -0.357899 -37.0892 2.64706 -3.84386 9.80605 23.1739 -66.1659 0.0 0.0 0.0 6.97345 6.60448 -12.999 -29.9353 0.0465392 4.54182 39.6308 -7.43471 -4.94084 -36.3015 0.0 0.0 -0.0 0.0 -0.0 -5.26696 18.5232 -10.6686 0.0978988 0.00404356 0.0144793 39.6985 -12.6616 4.87475 -40.0927 0.0 0.0 0.0 0.0 0.0 
1578.26 670.862 -1537.99 57.226 87.4289 -53.1356 -0.332631 0.102696 -1.4697 -0.33145 0.195998 -1.46019 -0.335985 0.506757 -1.38341 -0.338545 0.281939 -1.44606 -6.33398 10.9229 3.97999 -6.28348 17.3367 6.10122 -0.0 0.0 -0.0 3.53246 23.8545 7.57068 -15.5392 -44.0242 61.7776 1.09393 -28.4524 0.277346 -14.0121 -0.698735 1.64529 2.25379 -0.876424 14.8883 -0.0 0.0 -0.0 12.0009 0.955219 -23.9349 4.77373 -29.8552 -61.2298 1.23607 31.4783 -0.348367 -36.7207 2.60936 -3.81533 9.6147 23.5651 -63.0036 0.0 0.0 0.0 6.73341 1.46141 -12.3317 -31.8926 -0.033066 4.83162 40.1851 -4.2878 -4.93716 -35.5534 0.0 0.0 -0.0 0.0 -0.0 -6.00412 17.8229 -11.2173 -0.161071 -0.00659885 -0.0238371 41.7011 -11.6645 5.03817 -39.8076 0.0 0.0 0.0 0.0 0.0 
